<svg xmlns="http://www.w3.org/2000/svg" viewBox="0 0 567.2 128.3" xml:space="preserve"><path d="M131.1 118.5h-19.5L111.7 0H86.8v125.8h44.3zM165.4 0 136 125.8h7.5l12.7-54.5h25l10.4 54.5h24.8L188.5 0zM158 64.1l12.1-51.6 9.8 51.6zM288.1 0 268 86.7 250 0h-20.1l-7.3.1v125.7h7.3V17.4l4.5 17.9 20.3 90.5h11.9l23.7-101.4v101.4h24.9V0zm60.3 40.2s-.2 16.5-.2 23.1.2 22.3.2 22.3c0 18.5 4.5 32.9 17 32.9 12.4 0 17-14.4 17-32.9 0 0 .2-15.7.2-22.3s-.2-23.1-.2-23.1c0-18.5-4.5-32.8-17-32.8-12.5-.1-17 14.2-17 32.8m59 22.6c0 61-35.3 63-42 63s-42-1.8-42-62.9S358.6 0 365.3 0c6.8 0 42.1 1.7 42.1 62.8m52.2 54.4c19.2 0 17.6-34.4 17.6-34.4V0h7.3c0 .7.7 73.4.7 82.8v3.3c-.3 10.6-1.7 23-9.2 30.8-.5.5-1 1-1.6 1.5-8.3 7.2-21.5 8.2-31.7 6.7-10.3-1.6-19.9-7.3-23.9-18-3-8.1-3.2-16.9-3.2-25.5V0h24.8v90.9c.1 0-.3 26.3 19.2 26.3m89.2-47.7c3.6-1.5 6.9-3 9.5-6 7.8-9.4 7.8-19.5 7.8-28.4 0-17.2-8.2-29-23.2-33.6-.2-.1-.4-.1-.7-.2-.1 0-.1 0-.2-.1h-.1c-.2-.1-.4-.1-.6-.2s-.4-.1-.7-.1h-.1c-.2 0-.4-.1-.7-.1-.2 0-.4-.1-.7-.1h-.2c-.2 0-.5-.1-.7-.1h-.1c-.2 0-.4 0-.6-.1h-.1c-.2 0-.4 0-.6-.1h-43.1v125.8h25V71.7h6.2l16 54.3.1.2h26.3zM524 64h-5.7V7.7c2.1 0 4.8.2 6.9.6 13.3 2.7 18.2 16.3 18.4 27.8.1 6-.2 12.6-2.5 18.3-.6 1.6-1.7 3-2.8 4.4-1.1 1.3-2.3 2.7-3.8 3.5-3.1 1.7-7 1.7-10.5 1.7M69.5 15.8c3.2 4.9 6.7 16 6.7 32-6.1 0-16.5.1-21.8.1v-1.4c0-5.1-.1-6.1-.1-6.1 0-18.7-4.1-32.8-13.4-32.8-11.6 0-15.8 14.1-15.8 32.8v36.8c0 5.2.1 9.6.1 9.6 0 19.1 4.9 32.5 16.8 32.5s15.6-13.4 15.6-32.5l.1-1c.1-4.4.2-8 .1-14.6H39.2v-7.3c12.9 0 25.8.1 38.7.1v61.7H62.5c-.2-20.9.2-13.9-.2-20.9-1.1 7.9-5.1 15.7-11.9 19.9-7.3 4.6-17.1 4.4-24.9.7S11.7 114.8 8 107.2c-3.8-7.8-5.6-16.5-6.7-25.1C.4 74.9 0 67.7.3 60.5c.4-17.4 4.2-38.3 18-50.6C24.3 3.8 32.5 0 41.4 0c8.3 0 15.9 3.2 21.8 8.5l.2.2c2.2 2 4.2 4.3 6.1 7.1"/><script/><script type="text/javascript"/></svg>