<svg xmlns="http://www.w3.org/2000/svg" width="375" height="79" viewBox="0 0 292 75" fill="none"><path fill-rule="evenodd" clip-rule="evenodd" d="M159.71 44.675v-1.626h22.529v1.674h-5.357v29.32h-1.005l-.096-.382c-.621-2.918-3.635-3.922-5.165-3.922h-.574c-2.535.092-4.803 1.16-7.147 2.265l-.267.126c-.239.096-.467.192-.694.287-.227.096-.454.192-.693.287-2.488 1.196-5.166 2.248-8.419 2.248-17.411 0-30.134-15.019-30.134-36.208C122.688 12.77 139.716.19 152.105.19c2.726 0 4.496.526 6.887 1.292l1.005.287.714.241.003.001h.001c.529.18 1.103.376 1.721.57l.957.24c.67.144 1.531.287 2.535.335 2.057.048 4.448-.478 5.453-2.87l.143-.287h1.053v26.307h-1.1l-.096-.382c-4.401-17.507-9.806-24.012-19.228-24.06h-.096c-7.749 0-10.332 4.975-11.719 7.654-3.683 7.126-4.448 23.39-4.448 28.364 0 13.919 1.243 19.898 3.587 26.116 2.392 6.361 6.553 9.423 12.819 9.327 5.788-.096 13.202-2.583 13.202-13.728V44.675zm130.723 3.061v-.43h1.387v26.307h-51.706v-1.722h6.314V3.78h-12.962v51.37c.143 8.992-5.836 19.85-18.894 19.85-19.467 0-26.116-10.14-26.116-23.246V3.779h-6.696V2.105h25.111v1.674h-6.457v53.954c0 .574.43 14.828 14.589 15.354 3.874.143 8.131-1.387 11.144-4.257 2.488-2.344 5.358-6.84 5.501-14.158V3.779H226.1V2.105h62.803v24.107h-1.148l-.096-.383c-4.426-22.404-14.672-22.194-25.171-21.978l-1.184.023c-.766.048-2.009.048-2.775.048v32.335h.585c5.777 0 12.813 0 14.339-14.015l.048-.43h1.148v30.85h-1.148l-.048-.43c-1.114-14.387-7.677-14.32-13.484-14.259l-.111.001-.42.004h-.956v33.96h.574q.313.001.736.007c4.044.046 15.255.175 23.036-6.846 4.735-4.257 7.27-10.093 7.605-17.363M85.763.383C71.08.383 54.96 15.067 54.96 37.5s16.645 37.31 30.803 37.31 30.804-14.876 30.804-37.309C116.519 15.067 100.448.383 85.763.383m17.124 34.343v3.061c0 4.161-.383 20.185-4.592 28.173-2.392 4.64-7.031 7.08-12.627 7.08S75.384 70.6 73.04 65.96c-4.21-7.988-4.544-24.012-4.544-28.173v-3.252c.143-6.41.957-18.416 4.544-25.447 2.87-5.835 8.705-7.079 12.627-7.079 3.97 0 9.758 1.244 12.628 7.08 3.587 7.03 4.353 19.036 4.544 25.446.048.047.048.143.048.19m-55.39-32.62h13.632V3.73h-6.457L33.674 73.996h-.383L6.888 3.73H0V2.104h23.772v1.627h-5.357l18.846 52.232L52.854 3.731h-5.835V2.105z" fill="#000"/><script type="text/javascript"/><script/></svg>