<svg width="168.701" height="93.3" viewBox="0 0 168.701 93.3" xmlns="http://www.w3.org/2000/svg"><g id="svgGroup" stroke-linecap="round" fill-rule="evenodd" font-size="9pt" stroke="#000" stroke-width="0.25mm" fill="#000" style="stroke:#000;stroke-width:0.25mm;fill:#000">
    <title>Klip Store Logo</title>
    <path d="M 131.6 74.5 L 128.4 91.7 L 112.8 93.3 L 126.4 22.7 L 139.2 21.1 L 138 29.4 Q 140.6 25.3 144.85 22.95 Q 149.1 20.6 154.3 20.6 Q 162 20.6 165.35 25.45 A 16.273 16.273 0 0 1 167.448 29.893 Q 168.113 32.029 168.425 34.636 A 41.904 41.904 0 0 1 168.7 39.6 A 49.124 49.124 0 0 1 167.188 51.958 A 43.412 43.412 0 0 1 165.35 57.5 A 31.604 31.604 0 0 1 159.184 67.263 A 29.662 29.662 0 0 1 155.35 70.7 Q 148.7 75.7 139.3 75.7 Q 135.4 75.7 131.6 74.5 Z M 24.9 40.9 L 49.2 7.7 L 66.6 7.7 A 1477.476 1477.476 0 0 0 58.581 17.075 Q 47.2 30.5 39.7 40.1 A 154.604 154.604 0 0 0 42.611 47.909 Q 44.143 51.683 45.701 54.825 A 66.309 66.309 0 0 0 48.3 59.6 A 47.619 47.619 0 0 0 50.684 63.204 Q 53.224 66.661 55.66 68.32 A 10.69 10.69 0 0 0 56.8 69 A 10.113 10.113 0 0 1 55.576 71.662 A 8.245 8.245 0 0 1 53.25 74 A 9.894 9.894 0 0 1 49.613 75.461 A 13.642 13.642 0 0 1 47 75.7 A 13.522 13.522 0 0 1 42.094 74.837 A 12.236 12.236 0 0 1 37.7 71.9 A 23.209 23.209 0 0 1 34.765 68.133 Q 33.529 66.188 32.445 63.788 A 47.43 47.43 0 0 1 31.35 61.15 Q 28.7 54.2 24.9 40.9 Z M 88.4 2.1 L 76.8 61 Q 76.388 63.226 76.315 64.636 A 11.037 11.037 0 0 0 76.3 65.2 A 6.212 6.212 0 0 0 76.439 66.552 Q 76.657 67.528 77.214 68.254 A 3.971 3.971 0 0 0 77.25 68.3 A 3.272 3.272 0 0 0 78.949 69.414 A 5.05 5.05 0 0 0 80.1 69.6 A 7.496 7.496 0 0 1 76.403 74.149 A 25.198 25.198 0 0 1 76.4 74.15 Q 73.6 75.7 70 75.7 A 12.975 12.975 0 0 1 67.263 75.428 Q 65.465 75.04 64.108 74.099 A 7.694 7.694 0 0 1 63.35 73.5 A 7.127 7.127 0 0 1 61.176 69.741 A 10.976 10.976 0 0 1 60.9 67.2 Q 60.9 65.24 61.468 61.518 A 120.321 120.321 0 0 1 61.9 58.9 Q 62.588 54.982 63.18 51.914 A 234.522 234.522 0 0 1 63.7 49.3 L 72.6 3.7 L 88.4 2.1 Z M 29.1 7.7 L 16.5 73.7 L 0 73.7 L 12.5 7.7 L 29.1 7.7 Z M 113.5 21.1 L 105.6 61 Q 105.188 63.226 105.115 64.636 A 11.037 11.037 0 0 0 105.1 65.2 A 6.212 6.212 0 0 0 105.239 66.552 Q 105.457 67.528 106.014 68.254 A 3.971 3.971 0 0 0 106.05 68.3 A 3.272 3.272 0 0 0 107.749 69.414 A 5.05 5.05 0 0 0 108.9 69.6 A 7.496 7.496 0 0 1 105.203 74.149 A 25.198 25.198 0 0 1 105.2 74.15 Q 102.4 75.7 98.8 75.7 A 12.975 12.975 0 0 1 96.063 75.428 Q 94.265 75.04 92.908 74.099 A 7.694 7.694 0 0 1 92.15 73.5 A 7.127 7.127 0 0 1 89.976 69.741 A 10.976 10.976 0 0 1 89.7 67.2 Q 89.7 65.24 90.268 61.518 A 120.321 120.321 0 0 1 90.7 58.9 Q 91.388 54.982 91.98 51.914 A 234.522 234.522 0 0 1 92.5 49.3 L 97.8 22.7 L 113.5 21.1 Z M 137.8 41.5 L 133.1 67.2 A 9.162 9.162 0 0 0 135.931 68.84 A 10.691 10.691 0 0 0 136.4 69 A 12.933 12.933 0 0 0 138.851 69.529 A 11.174 11.174 0 0 0 140.1 69.6 A 7.639 7.639 0 0 0 146.193 66.732 A 11.869 11.869 0 0 0 147.45 64.9 A 24.609 24.609 0 0 0 149.004 61.499 Q 150.628 57.188 151.8 50.5 A 123.221 123.221 0 0 0 152.749 45.188 Q 153.171 42.459 153.384 40.103 A 49.255 49.255 0 0 0 153.6 35.7 Q 153.6 32.091 152.563 30.151 A 5.495 5.495 0 0 0 152.45 29.95 A 3.763 3.763 0 0 0 150.042 28.191 Q 149.364 28.015 148.541 28.001 A 8.437 8.437 0 0 0 148.4 28 A 7.69 7.69 0 0 0 142.41 30.743 A 11.329 11.329 0 0 0 141.45 32 Q 138.8 36 137.8 41.5 Z M 115.05 1.85 A 7.973 7.973 0 0 0 114.117 1.244 Q 111.879 0 108.6 0 A 17.173 17.173 0 0 0 108.156 0.006 Q 106.618 0.046 105.3 0.364 A 9.45 9.45 0 0 0 101.9 1.9 A 6.037 6.037 0 0 0 99.662 4.912 A 7.502 7.502 0 0 0 99.3 7.3 A 8.395 8.395 0 0 0 99.35 8.231 A 5.818 5.818 0 0 0 101.8 12.5 A 8.279 8.279 0 0 0 102.642 13.032 Q 104.943 14.3 108.3 14.3 A 17.308 17.308 0 0 0 108.997 14.286 Q 110.482 14.227 111.75 13.907 A 9.222 9.222 0 0 0 114.95 12.45 A 5.867 5.867 0 0 0 117.171 9.403 A 7.63 7.63 0 0 0 117.5 7.1 A 8.673 8.673 0 0 0 117.461 6.262 A 6.005 6.005 0 0 0 115.05 1.85 Z" vector-effect="non-scaling-stroke"/></g></svg>