<?xml version="1.0" standalone="no"?>
<!DOCTYPE svg PUBLIC "-//W3C//DTD SVG 20010904//EN"
 "http://www.w3.org/TR/2001/REC-SVG-20010904/DTD/svg10.dtd">
<svg version="1.0" xmlns="http://www.w3.org/2000/svg"
 width="544.000000pt" height="544.000000pt" viewBox="0 0 544.000000 544.000000"
 preserveAspectRatio="xMidYMid meet">
<metadata>
Created by potrace 1.14, written by Peter Selinger 2001-2017
</metadata>
<g transform="translate(0.000000,544.000000) scale(0.100000,-0.100000)"
fill="#000000" stroke="none">
<path d="M1056 5423 c-3 -10 -12 -54 -20 -98 -9 -44 -17 -90 -20 -101 -2 -12
-7 -37 -10 -55 -11 -64 -16 -94 -23 -124 -9 -40 -8 -33 -18 -90 -5 -27 -9 -52
-10 -55 0 -3 -5 -27 -10 -55 -5 -27 -9 -52 -10 -55 -1 -6 -14 -68 -20 -100 -3
-13 -7 -42 -11 -65 -7 -46 -12 -70 -14 -70 -1 0 -3 -11 -6 -25 -2 -14 -10 -61
-19 -105 -8 -44 -17 -91 -19 -105 -3 -14 -7 -34 -9 -45 -3 -11 -8 -40 -12 -65
-10 -64 -13 -79 -19 -98 -3 -9 -8 -33 -11 -52 -3 -19 -10 -57 -15 -85 -5 -27
-12 -61 -14 -75 -3 -14 -7 -36 -10 -50 -3 -14 -7 -36 -10 -50 -2 -14 -11 -63
-20 -110 -8 -47 -18 -96 -20 -110 -3 -14 -10 -50 -16 -80 -6 -30 -13 -66 -15
-80 -4 -26 -51 -269 -59 -306 -2 -12 -7 -37 -10 -55 -3 -19 -8 -44 -10 -55 -2
-12 -7 -37 -10 -55 -3 -19 -14 -77 -25 -129 -19 -93 -30 -154 -36 -197 -2 -12
-6 -34 -9 -50 -7 -32 -9 -39 -36 -183 -11 -58 -22 -114 -24 -125 -14 -74 -46
-246 -51 -274 -3 -19 -7 -37 -9 -40 -2 -3 -7 -28 -10 -56 -4 -27 -9 -57 -11
-65 -2 -8 -7 -28 -9 -45 -5 -29 -21 -109 -30 -151 -2 -12 -7 -39 -11 -60 -4
-22 -9 -48 -11 -59 -6 -37 -28 -153 -49 -255 -8 -41 -26 -136 -40 -210 -14
-74 -27 -146 -30 -160 -3 -14 -7 -38 -10 -55 -2 -16 -9 -55 -15 -85 -7 -30
-13 -64 -15 -75 -2 -11 -17 -92 -34 -180 -17 -88 -34 -173 -36 -190 -3 -16
-10 -54 -16 -83 -6 -30 -8 -56 -5 -60 11 -10 1307 -8 1315 3 5 6 11 26 14 45
3 19 9 46 12 60 3 14 7 41 10 60 2 19 4 35 5 35 3 0 10 39 15 75 2 19 9 50 14
69 6 18 10 36 9 40 0 3 1 9 2 14 5 13 6 22 15 77 5 30 9 57 10 60 9 38 16 70
20 95 3 17 7 41 10 55 14 68 37 187 39 205 4 23 24 132 41 215 3 14 14 75 25
135 11 61 24 121 27 135 3 14 7 34 8 45 1 11 5 34 9 50 3 17 9 41 11 55 3 14
7 36 10 50 3 14 9 50 15 80 6 30 12 66 15 80 3 14 8 41 11 60 11 56 12 63 23
109 5 25 8 49 5 53 -3 4 0 8 6 8 6 0 8 4 5 10 -3 5 -1 27 4 47 6 21 13 56 16
78 3 22 10 60 16 85 12 57 18 86 25 129 3 18 8 43 10 55 3 11 7 35 10 51 6 33
9 47 25 120 6 28 11 57 11 65 0 8 9 58 20 110 11 52 22 106 24 120 2 14 7 36
9 50 11 52 15 75 21 114 3 22 7 43 10 47 2 3 5 22 8 42 2 20 7 44 10 54 2 10
7 34 10 53 3 19 8 46 11 60 6 26 22 107 29 150 3 14 5 25 6 25 1 0 3 11 5 25
2 14 29 158 60 320 32 162 59 306 61 320 4 25 10 54 20 100 2 14 6 36 8 50 2
14 11 59 19 100 9 41 18 91 21 111 3 20 8 42 10 50 3 8 7 30 10 49 8 50 16 93
21 110 3 8 7 33 11 55 3 22 7 42 9 45 3 5 11 50 20 117 2 15 8 48 14 73 5 25
12 59 15 75 3 17 8 41 11 55 3 14 8 36 10 50 2 14 7 36 10 50 3 14 7 40 9 58
l4 32 -663 0 c-623 0 -664 -1 -669 -17z"/>
<path d="M3957 5390 c-20 -27 -37 -54 -37 -60 0 -5 -4 -10 -8 -10 -5 0 -26
-26 -48 -57 -21 -32 -45 -65 -51 -73 -14 -17 -220 -296 -243 -330 -13 -19 -41
-57 -110 -150 -10 -14 -109 -149 -219 -300 -110 -151 -204 -279 -209 -285 -8
-10 -267 -364 -373 -510 -32 -44 -65 -89 -74 -100 -8 -11 -63 -85 -121 -165
-58 -80 -114 -156 -124 -170 -10 -14 -38 -52 -62 -85 -25 -33 -76 -103 -114
-155 -102 -139 -112 -153 -109 -170 2 -8 17 -64 35 -125 18 -60 34 -117 36
-125 2 -8 17 -60 34 -115 17 -55 33 -107 35 -115 2 -8 8 -27 14 -42 6 -16 8
-28 5 -28 -4 0 -1 -7 6 -15 7 -8 10 -15 6 -15 -3 0 1 -17 8 -38 15 -38 78
-239 82 -257 3 -19 174 -530 183 -550 6 -11 21 -53 35 -93 54 -153 203 -491
226 -512 3 -3 11 -16 18 -30 6 -14 17 -34 24 -45 256 -409 447 -562 811 -652
55 -13 334 -12 407 2 260 50 465 208 553 425 37 90 38 100 14 109 -77 30 -276
209 -396 357 -109 134 -331 476 -331 509 0 8 -4 15 -8 15 -4 0 -23 30 -42 68
-19 37 -41 78 -51 92 -9 14 -17 28 -18 33 0 4 -32 73 -71 153 -38 80 -70 147
-70 149 0 3 -12 30 -26 62 -38 84 -49 110 -80 188 -15 39 -31 74 -35 79 -5 6
-9 16 -9 23 0 7 -9 32 -19 56 -23 51 -90 227 -121 317 -12 36 -28 79 -35 95
-7 17 -18 47 -23 68 l-10 37 131 167 c140 177 514 641 532 659 5 6 26 30 45
54 19 24 102 125 185 224 82 100 157 189 165 199 8 10 22 28 32 38 9 11 31 38
50 61 18 23 38 46 43 52 6 6 44 51 85 101 41 49 84 99 95 110 11 12 34 38 50
60 17 21 39 48 50 61 28 31 49 56 135 159 41 49 89 105 107 125 17 19 91 105
163 190 73 85 144 169 159 185 14 17 48 56 75 88 l48 57 -699 0 -699 0 -37
-50z"/>
</g>
</svg>
